<svg width="14" height="12" viewBox="0 0 14 12" xmlns="http://www.w3.org/2000/svg"><title>github</title><path d="M9.42 6.93c-.547 0-.99.615-.99 1.37 0 .756.443 1.37.99 1.37.546 0 .989-.614.989-1.37-.001-.755-.443-1.37-.99-1.37zm3.443-3.562c.114-.278.118-1.856-.483-3.368 0 0-1.378.151-3.463 1.583-.437-.122-1.177-.181-1.916-.181-.74 0-1.48.059-1.918.18C2.998.153 1.62 0 1.62 0c-.6 1.512-.594 3.09-.483 3.368C.431 4.135 0 5.056 0 6.313c0 5.468 4.537 5.555 5.681 5.555l1.32.002 1.318-.002c1.145 0 5.681-.087 5.681-5.555 0-1.257-.43-2.178-1.137-2.945zm-5.842 7.828H6.98c-2.87 0-5.105-.341-5.105-3.13 0-.67.236-1.289.797-1.803.933-.858 2.514-.404 4.308-.404H7.02c1.794 0 3.376-.454 4.31.404a2.36 2.36 0 0 1 .795 1.802c0 2.79-2.235 3.131-5.105 3.131zm-2.44-4.265c-.546 0-.989.614-.989 1.369 0 .756.443 1.37.99 1.37.546 0 .99-.614.99-1.37 0-.755-.444-1.37-.99-1.37z" fill="#FFF" fill-rule="evenodd"/></svg>